<?xml version="1.0" encoding="utf-8" ?>
<svg baseProfile="full" height="560" version="1.1" viewBox="0 0 56 56" width="560" xmlns="http://www.w3.org/2000/svg" xmlns:ev="http://www.w3.org/2001/xml-events" xmlns:xlink="http://www.w3.org/1999/xlink"><defs /><rect fill="#000060" height="1" width="1" x="28" y="14" /><rect fill="#000060" height="1" width="1" x="31" y="14" /><rect fill="#000060" height="1" width="1" x="26" y="15" /><rect fill="#000060" height="1" width="1" x="30" y="15" /><rect fill="#000060" height="1" width="1" x="31" y="15" /><rect fill="#000060" height="1" width="1" x="26" y="16" /><rect fill="#000060" height="1" width="1" x="27" y="16" /><rect fill="#000060" height="1" width="1" x="29" y="16" /><rect fill="#000060" height="1" width="1" x="31" y="16" /><rect fill="#000060" height="1" width="1" x="27" y="17" /><rect fill="#000060" height="1" width="1" x="28" y="17" /><rect fill="#000060" height="1" width="1" x="29" y="17" /><rect fill="#000060" height="1" width="1" x="31" y="17" /><rect fill="#000060" height="1" width="1" x="32" y="17" /><rect fill="#000060" height="1" width="1" x="28" y="18" /><rect fill="#000060" height="1" width="1" x="29" y="18" /><rect fill="#000060" height="1" width="1" x="30" y="18" /><rect fill="#000060" height="1" width="1" x="32" y="18" /><rect fill="#000060" height="1" width="1" x="33" y="18" /><rect fill="#000060" height="1" width="1" x="27" y="19" /><rect fill="#000060" height="1" width="1" x="29" y="19" /><rect fill="#000060" height="1" width="1" x="30" y="19" /><rect fill="#000060" height="1" width="1" x="31" y="19" /><rect fill="#000060" height="1" width="1" x="33" y="19" /><rect fill="#000060" height="1" width="1" x="34" y="19" /><rect fill="#000060" height="1" width="1" x="35" y="19" /><rect fill="#000060" height="1" width="1" x="26" y="20" /><rect fill="#000060" height="1" width="1" x="28" y="20" /><rect fill="#000060" height="1" width="1" x="29" y="20" /><rect fill="#000060" height="1" width="1" x="30" y="20" /><rect fill="#000060" height="1" width="1" x="31" y="20" /><rect fill="#000060" height="1" width="1" x="32" y="20" /><rect fill="#000060" height="1" width="1" x="34" y="20" /><rect fill="#000060" height="1" width="1" x="35" y="20" /><rect fill="#000060" height="1" width="1" x="36" y="20" /><rect fill="#000060" height="1" width="1" x="21" y="21" /><rect fill="#000060" height="1" width="1" x="27" y="21" /><rect fill="#000060" height="1" width="1" x="29" y="21" /><rect fill="#000060" height="1" width="1" x="30" y="21" /><rect fill="#000060" height="1" width="1" x="31" y="21" /><rect fill="#000060" height="1" width="1" x="32" y="21" /><rect fill="#000060" height="1" width="1" x="33" y="21" /><rect fill="#000060" height="1" width="1" x="35" y="21" /><rect fill="#000060" height="1" width="1" x="36" y="21" /><rect fill="#000060" height="1" width="1" x="37" y="21" /><rect fill="#000060" height="1" width="1" x="21" y="22" /><rect fill="#000060" height="1" width="1" x="22" y="22" /><rect fill="#000060" height="1" width="1" x="26" y="22" /><rect fill="#000060" height="1" width="1" x="28" y="22" /><rect fill="#000060" height="1" width="1" x="32" y="22" /><rect fill="#000060" height="1" width="1" x="33" y="22" /><rect fill="#000060" height="1" width="1" x="34" y="22" /><rect fill="#000060" height="1" width="1" x="36" y="22" /><rect fill="#000060" height="1" width="1" x="37" y="22" /><rect fill="#000060" height="1" width="1" x="38" y="22" /><rect fill="#000060" height="1" width="1" x="20" y="23" /><rect fill="#000060" height="1" width="1" x="21" y="23" /><rect fill="#000060" height="1" width="1" x="22" y="23" /><rect fill="#000060" height="1" width="1" x="23" y="23" /><rect fill="#000060" height="1" width="1" x="24" y="23" /><rect fill="#000060" height="1" width="1" x="25" y="23" /><rect fill="#000060" height="1" width="1" x="26" y="23" /><rect fill="#000060" height="1" width="1" x="31" y="23" /><rect fill="#000060" height="1" width="1" x="33" y="23" /><rect fill="#000060" height="1" width="1" x="34" y="23" /><rect fill="#000060" height="1" width="1" x="36" y="23" /><rect fill="#000060" height="1" width="1" x="37" y="23" /><rect fill="#000060" height="1" width="1" x="38" y="23" /><rect fill="#000060" height="1" width="1" x="15" y="24" /><rect fill="#000060" height="1" width="1" x="16" y="24" /><rect fill="#000060" height="1" width="1" x="30" y="24" /><rect fill="#000060" height="1" width="1" x="31" y="24" /><rect fill="#000060" height="1" width="1" x="33" y="24" /><rect fill="#000060" height="1" width="1" x="34" y="24" /><rect fill="#000060" height="1" width="1" x="35" y="24" /><rect fill="#000060" height="1" width="1" x="37" y="24" /><rect fill="#000060" height="1" width="1" x="38" y="24" /><rect fill="#000060" height="1" width="1" x="39" y="24" /><rect fill="#000060" height="1" width="1" x="16" y="25" /><rect fill="#000060" height="1" width="1" x="17" y="25" /><rect fill="#000060" height="1" width="1" x="18" y="25" /><rect fill="#000060" height="1" width="1" x="19" y="25" /><rect fill="#000060" height="1" width="1" x="20" y="25" /><rect fill="#000060" height="1" width="1" x="21" y="25" /><rect fill="#000060" height="1" width="1" x="22" y="25" /><rect fill="#000060" height="1" width="1" x="23" y="25" /><rect fill="#000060" height="1" width="1" x="24" y="25" /><rect fill="#000060" height="1" width="1" x="25" y="25" /><rect fill="#000060" height="1" width="1" x="29" y="25" /><rect fill="#000060" height="1" width="1" x="30" y="25" /><rect fill="#000060" height="1" width="1" x="31" y="25" /><rect fill="#000060" height="1" width="1" x="33" y="25" /><rect fill="#000060" height="1" width="1" x="34" y="25" /><rect fill="#000060" height="1" width="1" x="35" y="25" /><rect fill="#000060" height="1" width="1" x="37" y="25" /><rect fill="#000060" height="1" width="1" x="38" y="25" /><rect fill="#000060" height="1" width="1" x="39" y="25" /><rect fill="#000060" height="1" width="1" x="17" y="26" /><rect fill="#000060" height="1" width="1" x="18" y="26" /><rect fill="#000060" height="1" width="1" x="19" y="26" /><rect fill="#000060" height="1" width="1" x="20" y="26" /><rect fill="#000060" height="1" width="1" x="21" y="26" /><rect fill="#000060" height="1" width="1" x="22" y="26" /><rect fill="#000060" height="1" width="1" x="25" y="26" /><rect fill="#000060" height="1" width="1" x="26" y="26" /><rect fill="#000060" height="1" width="1" x="27" y="26" /><rect fill="#000060" height="1" width="1" x="28" y="26" /><rect fill="#000060" height="1" width="1" x="29" y="26" /><rect fill="#000060" height="1" width="1" x="30" y="26" /><rect fill="#000060" height="1" width="1" x="31" y="26" /><rect fill="#000060" height="1" width="1" x="33" y="26" /><rect fill="#000060" height="1" width="1" x="34" y="26" /><rect fill="#000060" height="1" width="1" x="35" y="26" /><rect fill="#000060" height="1" width="1" x="37" y="26" /><rect fill="#000060" height="1" width="1" x="38" y="26" /><rect fill="#000060" height="1" width="1" x="39" y="26" /><rect fill="#000060" height="1" width="1" x="14" y="27" /><rect fill="#000060" height="1" width="1" x="19" y="27" /><rect fill="#000060" height="1" width="1" x="20" y="27" /><rect fill="#000060" height="1" width="1" x="21" y="27" /><rect fill="#000060" height="1" width="1" x="25" y="27" /><rect fill="#000060" height="1" width="1" x="26" y="27" /><rect fill="#000060" height="1" width="1" x="27" y="27" /><rect fill="#000060" height="1" width="1" x="28" y="27" /><rect fill="#000060" height="1" width="1" x="29" y="27" /><rect fill="#000060" height="1" width="1" x="30" y="27" /><rect fill="#000060" height="1" width="1" x="31" y="27" /><rect fill="#000060" height="1" width="1" x="32" y="27" /><rect fill="#000060" height="1" width="1" x="34" y="27" /><rect fill="#000060" height="1" width="1" x="35" y="27" /><rect fill="#000060" height="1" width="1" x="37" y="27" /><rect fill="#000060" height="1" width="1" x="38" y="27" /><rect fill="#000060" height="1" width="1" x="40" y="27" /><rect fill="#000060" height="1" width="1" x="41" y="27" /><rect fill="#000060" height="1" width="1" x="16" y="28" /><rect fill="#000060" height="1" width="1" x="18" y="28" /><rect fill="#000060" height="1" width="1" x="19" y="28" /><rect fill="#000060" height="1" width="1" x="20" y="28" /><rect fill="#000060" height="1" width="1" x="21" y="28" /><rect fill="#000060" height="1" width="1" x="24" y="28" /><rect fill="#000060" height="1" width="1" x="25" y="28" /><rect fill="#000060" height="1" width="1" x="26" y="28" /><rect fill="#000060" height="1" width="1" x="27" y="28" /><rect fill="#000060" height="1" width="1" x="28" y="28" /><rect fill="#000060" height="1" width="1" x="29" y="28" /><rect fill="#000060" height="1" width="1" x="30" y="28" /><rect fill="#000060" height="1" width="1" x="31" y="28" /><rect fill="#000060" height="1" width="1" x="32" y="28" /><rect fill="#000060" height="1" width="1" x="34" y="28" /><rect fill="#000060" height="1" width="1" x="35" y="28" /><rect fill="#000060" height="1" width="1" x="37" y="28" /><rect fill="#000060" height="1" width="1" x="38" y="28" /><rect fill="#000060" height="1" width="1" x="40" y="28" /><rect fill="#000060" height="1" width="1" x="41" y="28" /><rect fill="#000060" height="1" width="1" x="15" y="29" /><rect fill="#000060" height="1" width="1" x="17" y="29" /><rect fill="#000060" height="1" width="1" x="18" y="29" /><rect fill="#000060" height="1" width="1" x="19" y="29" /><rect fill="#000060" height="1" width="1" x="20" y="29" /><rect fill="#000060" height="1" width="1" x="21" y="29" /><rect fill="#000060" height="1" width="1" x="22" y="29" /><rect fill="#000060" height="1" width="1" x="23" y="29" /><rect fill="#000060" height="1" width="1" x="24" y="29" /><rect fill="#000060" height="1" width="1" x="26" y="29" /><rect fill="#000060" height="1" width="1" x="27" y="29" /><rect fill="#000060" height="1" width="1" x="30" y="29" /><rect fill="#000060" height="1" width="1" x="31" y="29" /><rect fill="#000060" height="1" width="1" x="32" y="29" /><rect fill="#000060" height="1" width="1" x="33" y="29" /><rect fill="#000060" height="1" width="1" x="34" y="29" /><rect fill="#000060" height="1" width="1" x="36" y="29" /><rect fill="#000060" height="1" width="1" x="37" y="29" /><rect fill="#000060" height="1" width="1" x="39" y="29" /><rect fill="#000060" height="1" width="1" x="40" y="29" /><rect fill="#000060" height="1" width="1" x="41" y="29" /><rect fill="#000060" height="1" width="1" x="42" y="29" /><rect fill="#000060" height="1" width="1" x="13" y="30" /><rect fill="#000060" height="1" width="1" x="14" y="30" /><rect fill="#000060" height="1" width="1" x="16" y="30" /><rect fill="#000060" height="1" width="1" x="17" y="30" /><rect fill="#000060" height="1" width="1" x="18" y="30" /><rect fill="#000060" height="1" width="1" x="21" y="30" /><rect fill="#000060" height="1" width="1" x="22" y="30" /><rect fill="#000060" height="1" width="1" x="23" y="30" /><rect fill="#000060" height="1" width="1" x="25" y="30" /><rect fill="#000060" height="1" width="1" x="26" y="30" /><rect fill="#000060" height="1" width="1" x="31" y="30" /><rect fill="#000060" height="1" width="1" x="32" y="30" /><rect fill="#000060" height="1" width="1" x="33" y="30" /><rect fill="#000060" height="1" width="1" x="36" y="30" /><rect fill="#000060" height="1" width="1" x="38" y="30" /><rect fill="#000060" height="1" width="1" x="39" y="30" /><rect fill="#000060" height="1" width="1" x="40" y="30" /><rect fill="#000060" height="1" width="1" x="41" y="30" /><rect fill="#000060" height="1" width="1" x="42" y="30" /><rect fill="#000060" height="1" width="1" x="17" y="31" /><rect fill="#000060" height="1" width="1" x="18" y="31" /><rect fill="#000060" height="1" width="1" x="21" y="31" /><rect fill="#000060" height="1" width="1" x="22" y="31" /><rect fill="#000060" height="1" width="1" x="23" y="31" /><rect fill="#000060" height="1" width="1" x="25" y="31" /><rect fill="#000060" height="1" width="1" x="32" y="31" /><rect fill="#000060" height="1" width="1" x="33" y="31" /><rect fill="#000060" height="1" width="1" x="39" y="31" /><rect fill="#000060" height="1" width="1" x="40" y="31" /><rect fill="#000060" height="1" width="1" x="41" y="31" /><rect fill="#000060" height="1" width="1" x="42" y="31" /><rect fill="#000060" height="1" width="1" x="17" y="32" /><rect fill="#000060" height="1" width="1" x="18" y="32" /><rect fill="#000060" height="1" width="1" x="19" y="32" /><rect fill="#000060" height="1" width="1" x="20" y="32" /><rect fill="#000060" height="1" width="1" x="21" y="32" /><rect fill="#000060" height="1" width="1" x="22" y="32" /><rect fill="#000060" height="1" width="1" x="23" y="32" /><rect fill="#000060" height="1" width="1" x="24" y="32" /><rect fill="#000060" height="1" width="1" x="25" y="32" /><rect fill="#000060" height="1" width="1" x="32" y="32" /><rect fill="#000060" height="1" width="1" x="33" y="32" /><rect fill="#000060" height="1" width="1" x="35" y="32" /><rect fill="#000060" height="1" width="1" x="36" y="32" /><rect fill="#000060" height="1" width="1" x="39" y="32" /><rect fill="#000060" height="1" width="1" x="41" y="32" /><rect fill="#000060" height="1" width="1" x="42" y="32" /><rect fill="#000060" height="1" width="1" x="13" y="33" /><rect fill="#000060" height="1" width="1" x="18" y="33" /><rect fill="#000060" height="1" width="1" x="19" y="33" /><rect fill="#000060" height="1" width="1" x="20" y="33" /><rect fill="#000060" height="1" width="1" x="21" y="33" /><rect fill="#000060" height="1" width="1" x="22" y="33" /><rect fill="#000060" height="1" width="1" x="23" y="33" /><rect fill="#000060" height="1" width="1" x="24" y="33" /><rect fill="#000060" height="1" width="1" x="32" y="33" /><rect fill="#000060" height="1" width="1" x="33" y="33" /><rect fill="#000060" height="1" width="1" x="35" y="33" /><rect fill="#000060" height="1" width="1" x="36" y="33" /><rect fill="#000060" height="1" width="1" x="37" y="33" /><rect fill="#000060" height="1" width="1" x="38" y="33" /><rect fill="#000060" height="1" width="1" x="39" y="33" /><rect fill="#000060" height="1" width="1" x="41" y="33" /><rect fill="#000060" height="1" width="1" x="43" y="33" /><rect fill="#000060" height="1" width="1" x="14" y="34" /><rect fill="#000060" height="1" width="1" x="15" y="34" /><rect fill="#000060" height="1" width="1" x="18" y="34" /><rect fill="#000060" height="1" width="1" x="19" y="34" /><rect fill="#000060" height="1" width="1" x="20" y="34" /><rect fill="#000060" height="1" width="1" x="21" y="34" /><rect fill="#000060" height="1" width="1" x="22" y="34" /><rect fill="#000060" height="1" width="1" x="23" y="34" /><rect fill="#000060" height="1" width="1" x="24" y="34" /><rect fill="#000060" height="1" width="1" x="30" y="34" /><rect fill="#000060" height="1" width="1" x="31" y="34" /><rect fill="#000060" height="1" width="1" x="32" y="34" /><rect fill="#000060" height="1" width="1" x="33" y="34" /><rect fill="#000060" height="1" width="1" x="35" y="34" /><rect fill="#000060" height="1" width="1" x="36" y="34" /><rect fill="#000060" height="1" width="1" x="37" y="34" /><rect fill="#000060" height="1" width="1" x="38" y="34" /><rect fill="#000060" height="1" width="1" x="39" y="34" /><rect fill="#000060" height="1" width="1" x="41" y="34" /><rect fill="#000060" height="1" width="1" x="43" y="34" /><rect fill="#000060" height="1" width="1" x="14" y="35" /><rect fill="#000060" height="1" width="1" x="15" y="35" /><rect fill="#000060" height="1" width="1" x="16" y="35" /><rect fill="#000060" height="1" width="1" x="18" y="35" /><rect fill="#000060" height="1" width="1" x="19" y="35" /><rect fill="#000060" height="1" width="1" x="20" y="35" /><rect fill="#000060" height="1" width="1" x="21" y="35" /><rect fill="#000060" height="1" width="1" x="22" y="35" /><rect fill="#000060" height="1" width="1" x="23" y="35" /><rect fill="#000060" height="1" width="1" x="24" y="35" /><rect fill="#000060" height="1" width="1" x="25" y="35" /><rect fill="#000060" height="1" width="1" x="26" y="35" /><rect fill="#000060" height="1" width="1" x="27" y="35" /><rect fill="#000060" height="1" width="1" x="28" y="35" /><rect fill="#000060" height="1" width="1" x="29" y="35" /><rect fill="#000060" height="1" width="1" x="30" y="35" /><rect fill="#000060" height="1" width="1" x="31" y="35" /><rect fill="#000060" height="1" width="1" x="32" y="35" /><rect fill="#000060" height="1" width="1" x="33" y="35" /><rect fill="#000060" height="1" width="1" x="34" y="35" /><rect fill="#000060" height="1" width="1" x="35" y="35" /><rect fill="#000060" height="1" width="1" x="36" y="35" /><rect fill="#000060" height="1" width="1" x="38" y="35" /><rect fill="#000060" height="1" width="1" x="40" y="35" /><rect fill="#000060" height="1" width="1" x="42" y="35" /><rect fill="#000060" height="1" width="1" x="43" y="35" /><rect fill="#000060" height="1" width="1" x="15" y="36" /><rect fill="#000060" height="1" width="1" x="16" y="36" /><rect fill="#000060" height="1" width="1" x="17" y="36" /><rect fill="#000060" height="1" width="1" x="19" y="36" /><rect fill="#000060" height="1" width="1" x="20" y="36" /><rect fill="#000060" height="1" width="1" x="21" y="36" /><rect fill="#000060" height="1" width="1" x="23" y="36" /><rect fill="#000060" height="1" width="1" x="24" y="36" /><rect fill="#000060" height="1" width="1" x="25" y="36" /><rect fill="#000060" height="1" width="1" x="26" y="36" /><rect fill="#000060" height="1" width="1" x="27" y="36" /><rect fill="#000060" height="1" width="1" x="28" y="36" /><rect fill="#000060" height="1" width="1" x="32" y="36" /><rect fill="#000060" height="1" width="1" x="34" y="36" /><rect fill="#000060" height="1" width="1" x="35" y="36" /><rect fill="#000060" height="1" width="1" x="36" y="36" /><rect fill="#000060" height="1" width="1" x="14" y="37" /><rect fill="#000060" height="1" width="1" x="17" y="37" /><rect fill="#000060" height="1" width="1" x="20" y="37" /><rect fill="#000060" height="1" width="1" x="21" y="37" /><rect fill="#000060" height="1" width="1" x="22" y="37" /><rect fill="#000060" height="1" width="1" x="23" y="37" /><rect fill="#000060" height="1" width="1" x="24" y="37" /><rect fill="#000060" height="1" width="1" x="31" y="37" /><rect fill="#000060" height="1" width="1" x="33" y="37" /><rect fill="#000060" height="1" width="1" x="34" y="37" /><rect fill="#000060" height="1" width="1" x="35" y="37" /><rect fill="#000060" height="1" width="1" x="36" y="37" /><rect fill="#000060" height="1" width="1" x="14" y="38" /><rect fill="#000060" height="1" width="1" x="15" y="38" /><rect fill="#000060" height="1" width="1" x="19" y="38" /><rect fill="#000060" height="1" width="1" x="20" y="38" /><rect fill="#000060" height="1" width="1" x="21" y="38" /><rect fill="#000060" height="1" width="1" x="30" y="38" /><rect fill="#000060" height="1" width="1" x="32" y="38" /><rect fill="#000060" height="1" width="1" x="33" y="38" /><rect fill="#000060" height="1" width="1" x="34" y="38" /><rect fill="#000060" height="1" width="1" x="36" y="38" /><rect fill="#000060" height="1" width="1" x="13" y="39" /><rect fill="#000060" height="1" width="1" x="14" y="39" /><rect fill="#000060" height="1" width="1" x="15" y="39" /><rect fill="#000060" height="1" width="1" x="16" y="39" /><rect fill="#000060" height="1" width="1" x="27" y="39" /><rect fill="#000060" height="1" width="1" x="28" y="39" /><rect fill="#000060" height="1" width="1" x="31" y="39" /><rect fill="#000060" height="1" width="1" x="32" y="39" /><rect fill="#000060" height="1" width="1" x="33" y="39" /><rect fill="#000060" height="1" width="1" x="14" y="40" /><rect fill="#000060" height="1" width="1" x="15" y="40" /><rect fill="#000060" height="1" width="1" x="16" y="40" /><rect fill="#000060" height="1" width="1" x="17" y="40" /><rect fill="#000060" height="1" width="1" x="18" y="40" /><rect fill="#000060" height="1" width="1" x="21" y="40" /><rect fill="#000060" height="1" width="1" x="22" y="40" /><rect fill="#000060" height="1" width="1" x="23" y="40" /><rect fill="#000060" height="1" width="1" x="24" y="40" /><rect fill="#000060" height="1" width="1" x="25" y="40" /><rect fill="#000060" height="1" width="1" x="26" y="40" /><rect fill="#000060" height="1" width="1" x="29" y="40" /><rect fill="#000060" height="1" width="1" x="30" y="40" /><rect fill="#000060" height="1" width="1" x="31" y="40" /><rect fill="#000060" height="1" width="1" x="32" y="40" /><rect fill="#000060" height="1" width="1" x="33" y="40" /><rect fill="#000060" height="1" width="1" x="16" y="41" /><rect fill="#000060" height="1" width="1" x="30" y="41" /><rect fill="#000060" height="1" width="1" x="31" y="41" /><rect fill="#000060" height="1" width="1" x="32" y="41" /><rect fill="#000060" height="1" width="1" x="33" y="41" /><rect fill="#000060" height="1" width="1" x="34" y="41" /><rect fill="#000060" height="1" width="1" x="35" y="41" /><rect fill="#000060" height="1" width="1" x="30" y="42" /><rect fill="#000060" height="1" width="1" x="31" y="42" /><rect fill="#000060" height="1" width="1" x="32" y="42" /><rect fill="#000060" height="1" width="1" x="33" y="42" /><rect fill="#000060" height="1" width="1" x="34" y="42" /><rect fill="#000060" height="1" width="1" x="33" y="43" /></svg>