<?xml version="1.0" encoding="utf-8" ?>
<svg baseProfile="full" height="560" version="1.1" viewBox="0 0 56 56" width="560" xmlns="http://www.w3.org/2000/svg" xmlns:ev="http://www.w3.org/2001/xml-events" xmlns:xlink="http://www.w3.org/1999/xlink"><defs /><rect fill="#0060f8" height="1" width="1" x="28" y="13" /><rect fill="#0060f8" height="1" width="1" x="30" y="13" /><rect fill="#0060f8" height="1" width="1" x="31" y="13" /><rect fill="#0060f8" height="1" width="1" x="26" y="14" /><rect fill="#0060f8" height="1" width="1" x="27" y="14" /><rect fill="#0060f8" height="1" width="1" x="29" y="14" /><rect fill="#0060f8" height="1" width="1" x="32" y="14" /><rect fill="#0060f8" height="1" width="1" x="25" y="15" /><rect fill="#0060f8" height="1" width="1" x="27" y="15" /><rect fill="#0060f8" height="1" width="1" x="28" y="15" /><rect fill="#0060f8" height="1" width="1" x="29" y="15" /><rect fill="#0060f8" height="1" width="1" x="32" y="15" /><rect fill="#0060f8" height="1" width="1" x="25" y="16" /><rect fill="#0060f8" height="1" width="1" x="28" y="16" /><rect fill="#0060f8" height="1" width="1" x="30" y="16" /><rect fill="#0060f8" height="1" width="1" x="32" y="16" /><rect fill="#0060f8" height="1" width="1" x="25" y="17" /><rect fill="#0060f8" height="1" width="1" x="30" y="17" /><rect fill="#0060f8" height="1" width="1" x="33" y="17" /><rect fill="#0060f8" height="1" width="1" x="23" y="18" /><rect fill="#0060f8" height="1" width="1" x="24" y="18" /><rect fill="#0060f8" height="1" width="1" x="31" y="18" /><rect fill="#0060f8" height="1" width="1" x="34" y="18" /><rect fill="#0060f8" height="1" width="1" x="35" y="18" /><rect fill="#0060f8" height="1" width="1" x="22" y="19" /><rect fill="#0060f8" height="1" width="1" x="32" y="19" /><rect fill="#0060f8" height="1" width="1" x="36" y="19" /><rect fill="#0060f8" height="1" width="1" x="21" y="20" /><rect fill="#0060f8" height="1" width="1" x="33" y="20" /><rect fill="#0060f8" height="1" width="1" x="37" y="20" /><rect fill="#0060f8" height="1" width="1" x="20" y="21" /><rect fill="#0060f8" height="1" width="1" x="34" y="21" /><rect fill="#0060f8" height="1" width="1" x="38" y="21" /><rect fill="#0060f8" height="1" width="1" x="20" y="22" /><rect fill="#0060f8" height="1" width="1" x="29" y="22" /><rect fill="#0060f8" height="1" width="1" x="30" y="22" /><rect fill="#0060f8" height="1" width="1" x="31" y="22" /><rect fill="#0060f8" height="1" width="1" x="35" y="22" /><rect fill="#0060f8" height="1" width="1" x="39" y="22" /><rect fill="#0060f8" height="1" width="1" x="15" y="23" /><rect fill="#0060f8" height="1" width="1" x="16" y="23" /><rect fill="#0060f8" height="1" width="1" x="19" y="23" /><rect fill="#0060f8" height="1" width="1" x="27" y="23" /><rect fill="#0060f8" height="1" width="1" x="28" y="23" /><rect fill="#0060f8" height="1" width="1" x="32" y="23" /><rect fill="#0060f8" height="1" width="1" x="35" y="23" /><rect fill="#0060f8" height="1" width="1" x="39" y="23" /><rect fill="#0060f8" height="1" width="1" x="14" y="24" /><rect fill="#0060f8" height="1" width="1" x="17" y="24" /><rect fill="#0060f8" height="1" width="1" x="18" y="24" /><rect fill="#0060f8" height="1" width="1" x="19" y="24" /><rect fill="#0060f8" height="1" width="1" x="20" y="24" /><rect fill="#0060f8" height="1" width="1" x="21" y="24" /><rect fill="#0060f8" height="1" width="1" x="22" y="24" /><rect fill="#0060f8" height="1" width="1" x="23" y="24" /><rect fill="#0060f8" height="1" width="1" x="24" y="24" /><rect fill="#0060f8" height="1" width="1" x="25" y="24" /><rect fill="#0060f8" height="1" width="1" x="26" y="24" /><rect fill="#0060f8" height="1" width="1" x="32" y="24" /><rect fill="#0060f8" height="1" width="1" x="36" y="24" /><rect fill="#0060f8" height="1" width="1" x="40" y="24" /><rect fill="#0060f8" height="1" width="1" x="14" y="25" /><rect fill="#0060f8" height="1" width="1" x="32" y="25" /><rect fill="#0060f8" height="1" width="1" x="36" y="25" /><rect fill="#0060f8" height="1" width="1" x="40" y="25" /><rect fill="#0060f8" height="1" width="1" x="14" y="26" /><rect fill="#0060f8" height="1" width="1" x="23" y="26" /><rect fill="#0060f8" height="1" width="1" x="24" y="26" /><rect fill="#0060f8" height="1" width="1" x="32" y="26" /><rect fill="#0060f8" height="1" width="1" x="36" y="26" /><rect fill="#0060f8" height="1" width="1" x="40" y="26" /><rect fill="#0060f8" height="1" width="1" x="41" y="26" /><rect fill="#0060f8" height="1" width="1" x="22" y="27" /><rect fill="#0060f8" height="1" width="1" x="23" y="27" /><rect fill="#0060f8" height="1" width="1" x="24" y="27" /><rect fill="#0060f8" height="1" width="1" x="33" y="27" /><rect fill="#0060f8" height="1" width="1" x="36" y="27" /><rect fill="#0060f8" height="1" width="1" x="39" y="27" /><rect fill="#0060f8" height="1" width="1" x="42" y="27" /><rect fill="#0060f8" height="1" width="1" x="13" y="28" /><rect fill="#0060f8" height="1" width="1" x="22" y="28" /><rect fill="#0060f8" height="1" width="1" x="23" y="28" /><rect fill="#0060f8" height="1" width="1" x="33" y="28" /><rect fill="#0060f8" height="1" width="1" x="36" y="28" /><rect fill="#0060f8" height="1" width="1" x="39" y="28" /><rect fill="#0060f8" height="1" width="1" x="42" y="28" /><rect fill="#0060f8" height="1" width="1" x="13" y="29" /><rect fill="#0060f8" height="1" width="1" x="25" y="29" /><rect fill="#0060f8" height="1" width="1" x="28" y="29" /><rect fill="#0060f8" height="1" width="1" x="29" y="29" /><rect fill="#0060f8" height="1" width="1" x="35" y="29" /><rect fill="#0060f8" height="1" width="1" x="38" y="29" /><rect fill="#0060f8" height="1" width="1" x="43" y="29" /><rect fill="#0060f8" height="1" width="1" x="15" y="30" /><rect fill="#0060f8" height="1" width="1" x="19" y="30" /><rect fill="#0060f8" height="1" width="1" x="20" y="30" /><rect fill="#0060f8" height="1" width="1" x="24" y="30" /><rect fill="#0060f8" height="1" width="1" x="27" y="30" /><rect fill="#0060f8" height="1" width="1" x="30" y="30" /><rect fill="#0060f8" height="1" width="1" x="34" y="30" /><rect fill="#0060f8" height="1" width="1" x="35" y="30" /><rect fill="#0060f8" height="1" width="1" x="37" y="30" /><rect fill="#0060f8" height="1" width="1" x="43" y="30" /><rect fill="#0060f8" height="1" width="1" x="12" y="31" /><rect fill="#0060f8" height="1" width="1" x="14" y="31" /><rect fill="#0060f8" height="1" width="1" x="16" y="31" /><rect fill="#0060f8" height="1" width="1" x="19" y="31" /><rect fill="#0060f8" height="1" width="1" x="20" y="31" /><rect fill="#0060f8" height="1" width="1" x="24" y="31" /><rect fill="#0060f8" height="1" width="1" x="26" y="31" /><rect fill="#0060f8" height="1" width="1" x="27" y="31" /><rect fill="#0060f8" height="1" width="1" x="28" y="31" /><rect fill="#0060f8" height="1" width="1" x="31" y="31" /><rect fill="#0060f8" height="1" width="1" x="34" y="31" /><rect fill="#0060f8" height="1" width="1" x="35" y="31" /><rect fill="#0060f8" height="1" width="1" x="36" y="31" /><rect fill="#0060f8" height="1" width="1" x="37" y="31" /><rect fill="#0060f8" height="1" width="1" x="38" y="31" /><rect fill="#0060f8" height="1" width="1" x="43" y="31" /><rect fill="#0060f8" height="1" width="1" x="12" y="32" /><rect fill="#0060f8" height="1" width="1" x="14" y="32" /><rect fill="#0060f8" height="1" width="1" x="28" y="32" /><rect fill="#0060f8" height="1" width="1" x="31" y="32" /><rect fill="#0060f8" height="1" width="1" x="34" y="32" /><rect fill="#0060f8" height="1" width="1" x="37" y="32" /><rect fill="#0060f8" height="1" width="1" x="38" y="32" /><rect fill="#0060f8" height="1" width="1" x="40" y="32" /><rect fill="#0060f8" height="1" width="1" x="43" y="32" /><rect fill="#0060f8" height="1" width="1" x="12" y="33" /><rect fill="#0060f8" height="1" width="1" x="14" y="33" /><rect fill="#0060f8" height="1" width="1" x="17" y="33" /><rect fill="#0060f8" height="1" width="1" x="25" y="33" /><rect fill="#0060f8" height="1" width="1" x="28" y="33" /><rect fill="#0060f8" height="1" width="1" x="31" y="33" /><rect fill="#0060f8" height="1" width="1" x="34" y="33" /><rect fill="#0060f8" height="1" width="1" x="40" y="33" /><rect fill="#0060f8" height="1" width="1" x="42" y="33" /><rect fill="#0060f8" height="1" width="1" x="44" y="33" /><rect fill="#0060f8" height="1" width="1" x="13" y="34" /><rect fill="#0060f8" height="1" width="1" x="16" y="34" /><rect fill="#0060f8" height="1" width="1" x="17" y="34" /><rect fill="#0060f8" height="1" width="1" x="25" y="34" /><rect fill="#0060f8" height="1" width="1" x="27" y="34" /><rect fill="#0060f8" height="1" width="1" x="28" y="34" /><rect fill="#0060f8" height="1" width="1" x="29" y="34" /><rect fill="#0060f8" height="1" width="1" x="34" y="34" /><rect fill="#0060f8" height="1" width="1" x="40" y="34" /><rect fill="#0060f8" height="1" width="1" x="42" y="34" /><rect fill="#0060f8" height="1" width="1" x="44" y="34" /><rect fill="#0060f8" height="1" width="1" x="13" y="35" /><rect fill="#0060f8" height="1" width="1" x="17" y="35" /><rect fill="#0060f8" height="1" width="1" x="37" y="35" /><rect fill="#0060f8" height="1" width="1" x="39" y="35" /><rect fill="#0060f8" height="1" width="1" x="41" y="35" /><rect fill="#0060f8" height="1" width="1" x="44" y="35" /><rect fill="#0060f8" height="1" width="1" x="14" y="36" /><rect fill="#0060f8" height="1" width="1" x="18" y="36" /><rect fill="#0060f8" height="1" width="1" x="22" y="36" /><rect fill="#0060f8" height="1" width="1" x="29" y="36" /><rect fill="#0060f8" height="1" width="1" x="30" y="36" /><rect fill="#0060f8" height="1" width="1" x="31" y="36" /><rect fill="#0060f8" height="1" width="1" x="33" y="36" /><rect fill="#0060f8" height="1" width="1" x="37" y="36" /><rect fill="#0060f8" height="1" width="1" x="38" y="36" /><rect fill="#0060f8" height="1" width="1" x="39" y="36" /><rect fill="#0060f8" height="1" width="1" x="40" y="36" /><rect fill="#0060f8" height="1" width="1" x="42" y="36" /><rect fill="#0060f8" height="1" width="1" x="43" y="36" /><rect fill="#0060f8" height="1" width="1" x="13" y="37" /><rect fill="#0060f8" height="1" width="1" x="15" y="37" /><rect fill="#0060f8" height="1" width="1" x="16" y="37" /><rect fill="#0060f8" height="1" width="1" x="25" y="37" /><rect fill="#0060f8" height="1" width="1" x="26" y="37" /><rect fill="#0060f8" height="1" width="1" x="28" y="37" /><rect fill="#0060f8" height="1" width="1" x="30" y="37" /><rect fill="#0060f8" height="1" width="1" x="32" y="37" /><rect fill="#0060f8" height="1" width="1" x="37" y="37" /><rect fill="#0060f8" height="1" width="1" x="38" y="37" /><rect fill="#0060f8" height="1" width="1" x="13" y="38" /><rect fill="#0060f8" height="1" width="1" x="16" y="38" /><rect fill="#0060f8" height="1" width="1" x="17" y="38" /><rect fill="#0060f8" height="1" width="1" x="18" y="38" /><rect fill="#0060f8" height="1" width="1" x="22" y="38" /><rect fill="#0060f8" height="1" width="1" x="23" y="38" /><rect fill="#0060f8" height="1" width="1" x="24" y="38" /><rect fill="#0060f8" height="1" width="1" x="28" y="38" /><rect fill="#0060f8" height="1" width="1" x="29" y="38" /><rect fill="#0060f8" height="1" width="1" x="31" y="38" /><rect fill="#0060f8" height="1" width="1" x="35" y="38" /><rect fill="#0060f8" height="1" width="1" x="37" y="38" /><rect fill="#0060f8" height="1" width="1" x="12" y="39" /><rect fill="#0060f8" height="1" width="1" x="17" y="39" /><rect fill="#0060f8" height="1" width="1" x="18" y="39" /><rect fill="#0060f8" height="1" width="1" x="19" y="39" /><rect fill="#0060f8" height="1" width="1" x="20" y="39" /><rect fill="#0060f8" height="1" width="1" x="25" y="39" /><rect fill="#0060f8" height="1" width="1" x="26" y="39" /><rect fill="#0060f8" height="1" width="1" x="29" y="39" /><rect fill="#0060f8" height="1" width="1" x="30" y="39" /><rect fill="#0060f8" height="1" width="1" x="34" y="39" /><rect fill="#0060f8" height="1" width="1" x="35" y="39" /><rect fill="#0060f8" height="1" width="1" x="36" y="39" /><rect fill="#0060f8" height="1" width="1" x="12" y="40" /><rect fill="#0060f8" height="1" width="1" x="19" y="40" /><rect fill="#0060f8" height="1" width="1" x="20" y="40" /><rect fill="#0060f8" height="1" width="1" x="27" y="40" /><rect fill="#0060f8" height="1" width="1" x="28" y="40" /><rect fill="#0060f8" height="1" width="1" x="34" y="40" /><rect fill="#0060f8" height="1" width="1" x="35" y="40" /><rect fill="#0060f8" height="1" width="1" x="36" y="40" /><rect fill="#0060f8" height="1" width="1" x="13" y="41" /><rect fill="#0060f8" height="1" width="1" x="14" y="41" /><rect fill="#0060f8" height="1" width="1" x="17" y="41" /><rect fill="#0060f8" height="1" width="1" x="18" y="41" /><rect fill="#0060f8" height="1" width="1" x="21" y="41" /><rect fill="#0060f8" height="1" width="1" x="22" y="41" /><rect fill="#0060f8" height="1" width="1" x="23" y="41" /><rect fill="#0060f8" height="1" width="1" x="24" y="41" /><rect fill="#0060f8" height="1" width="1" x="25" y="41" /><rect fill="#0060f8" height="1" width="1" x="26" y="41" /><rect fill="#0060f8" height="1" width="1" x="29" y="41" /><rect fill="#0060f8" height="1" width="1" x="36" y="41" /><rect fill="#0060f8" height="1" width="1" x="14" y="42" /><rect fill="#0060f8" height="1" width="1" x="15" y="42" /><rect fill="#0060f8" height="1" width="1" x="16" y="42" /><rect fill="#0060f8" height="1" width="1" x="29" y="42" /><rect fill="#0060f8" height="1" width="1" x="35" y="42" /><rect fill="#0060f8" height="1" width="1" x="28" y="43" /><rect fill="#0060f8" height="1" width="1" x="30" y="43" /><rect fill="#0060f8" height="1" width="1" x="32" y="43" /><rect fill="#0060f8" height="1" width="1" x="35" y="43" /><rect fill="#0060f8" height="1" width="1" x="29" y="44" /><rect fill="#0060f8" height="1" width="1" x="30" y="44" /><rect fill="#0060f8" height="1" width="1" x="31" y="44" /><rect fill="#0060f8" height="1" width="1" x="32" y="44" /><rect fill="#0060f8" height="1" width="1" x="33" y="44" /><rect fill="#0060f8" height="1" width="1" x="34" y="44" /></svg>