<?xml version="1.0" encoding="utf-8" ?>
<svg baseProfile="full" height="560" version="1.1" viewBox="0 0 56 56" width="560" xmlns="http://www.w3.org/2000/svg" xmlns:ev="http://www.w3.org/2001/xml-events" xmlns:xlink="http://www.w3.org/1999/xlink"><defs /><rect fill="#60f858" height="1" width="1" x="30" y="14" /><rect fill="#60f858" height="1" width="1" x="26" y="17" /><rect fill="#60f858" height="1" width="1" x="25" y="18" /><rect fill="#60f858" height="1" width="1" x="26" y="18" /><rect fill="#60f858" height="1" width="1" x="27" y="18" /><rect fill="#60f858" height="1" width="1" x="23" y="19" /><rect fill="#60f858" height="1" width="1" x="24" y="19" /><rect fill="#60f858" height="1" width="1" x="25" y="19" /><rect fill="#60f858" height="1" width="1" x="26" y="19" /><rect fill="#60f858" height="1" width="1" x="28" y="19" /><rect fill="#60f858" height="1" width="1" x="22" y="20" /><rect fill="#60f858" height="1" width="1" x="23" y="20" /><rect fill="#60f858" height="1" width="1" x="24" y="20" /><rect fill="#60f858" height="1" width="1" x="25" y="20" /><rect fill="#60f858" height="1" width="1" x="27" y="20" /><rect fill="#60f858" height="1" width="1" x="22" y="21" /><rect fill="#60f858" height="1" width="1" x="23" y="21" /><rect fill="#60f858" height="1" width="1" x="24" y="21" /><rect fill="#60f858" height="1" width="1" x="25" y="21" /><rect fill="#60f858" height="1" width="1" x="26" y="21" /><rect fill="#60f858" height="1" width="1" x="28" y="21" /><rect fill="#60f858" height="1" width="1" x="23" y="22" /><rect fill="#60f858" height="1" width="1" x="24" y="22" /><rect fill="#60f858" height="1" width="1" x="25" y="22" /><rect fill="#60f858" height="1" width="1" x="27" y="22" /><rect fill="#60f858" height="1" width="1" x="29" y="23" /><rect fill="#60f858" height="1" width="1" x="30" y="23" /><rect fill="#60f858" height="1" width="1" x="27" y="24" /><rect fill="#60f858" height="1" width="1" x="28" y="24" /><rect fill="#60f858" height="1" width="1" x="29" y="24" /><rect fill="#60f858" height="1" width="1" x="15" y="25" /><rect fill="#60f858" height="1" width="1" x="26" y="25" /><rect fill="#60f858" height="1" width="1" x="27" y="25" /><rect fill="#60f858" height="1" width="1" x="28" y="25" /><rect fill="#60f858" height="1" width="1" x="15" y="26" /><rect fill="#60f858" height="1" width="1" x="16" y="26" /><rect fill="#60f858" height="1" width="1" x="15" y="27" /><rect fill="#60f858" height="1" width="1" x="16" y="27" /><rect fill="#60f858" height="1" width="1" x="17" y="27" /><rect fill="#60f858" height="1" width="1" x="18" y="27" /><rect fill="#60f858" height="1" width="1" x="14" y="28" /><rect fill="#60f858" height="1" width="1" x="15" y="28" /><rect fill="#60f858" height="1" width="1" x="17" y="28" /><rect fill="#60f858" height="1" width="1" x="14" y="29" /><rect fill="#60f858" height="1" width="1" x="16" y="29" /><rect fill="#60f858" height="1" width="1" x="28" y="30" /><rect fill="#60f858" height="1" width="1" x="29" y="30" /><rect fill="#60f858" height="1" width="1" x="13" y="31" /><rect fill="#60f858" height="1" width="1" x="15" y="31" /><rect fill="#60f858" height="1" width="1" x="29" y="31" /><rect fill="#60f858" height="1" width="1" x="30" y="31" /><rect fill="#60f858" height="1" width="1" x="13" y="32" /><rect fill="#60f858" height="1" width="1" x="15" y="32" /><rect fill="#60f858" height="1" width="1" x="26" y="32" /><rect fill="#60f858" height="1" width="1" x="29" y="32" /><rect fill="#60f858" height="1" width="1" x="30" y="32" /><rect fill="#60f858" height="1" width="1" x="15" y="33" /><rect fill="#60f858" height="1" width="1" x="26" y="33" /><rect fill="#60f858" height="1" width="1" x="29" y="33" /><rect fill="#60f858" height="1" width="1" x="30" y="33" /><rect fill="#60f858" height="1" width="1" x="18" y="37" /><rect fill="#60f858" height="1" width="1" x="19" y="37" /><rect fill="#60f858" height="1" width="1" x="27" y="37" /><rect fill="#60f858" height="1" width="1" x="13" y="40" /><rect fill="#60f858" height="1" width="1" x="15" y="41" /><rect fill="#60f858" height="1" width="1" x="29" y="43" /><rect fill="#60f858" height="1" width="1" x="31" y="43" /><rect fill="#60f858" height="1" width="1" x="34" y="43" /></svg>